<?xml version="1.0" encoding="UTF-8"?>
<svg width="360px" height="360px" viewBox="0 0 360 360" version="1.1" xmlns="http://www.w3.org/2000/svg" xmlns:xlink="http://www.w3.org/1999/xlink">
    <title>Group_966备份 7</title>
    <defs>
        <linearGradient x1="50%" y1="34.9913018%" x2="50%" y2="101.314725%" id="linearGradient-1">
            <stop stop-color="#01E8F8" offset="0%"></stop>
            <stop stop-color="#01E8F8" stop-opacity="0" offset="100%"></stop>
        </linearGradient>
        <linearGradient x1="42.5625304%" y1="20.960183%" x2="71.5258973%" y2="76.0533822%" id="linearGradient-2">
            <stop stop-color="#FFFFFF" offset="0%"></stop>
            <stop stop-color="#00B3EC" offset="100%"></stop>
        </linearGradient>
        <path d="M99.4737432,7.48581384 C28.180998,-18.5970508 29.5753484,31.1998507 4.94126431,56.4135142 C-9.25927078,113.215655 8.07491289,83.025448 59.1355774,141.037705 C78.5293678,160.674527 61.9175585,159.212419 79.1324664,155.81782 C95.2061349,150.094823 74.8379791,174.607952 88.7506844,173.981334 C88.1229467,176.960428 96.8653559,166.446242 97.4449353,163.475548 C157.725672,141.232578 181.473308,107.597374 183.826344,71.7732081 C167.173096,60.7012817 131.087979,47.5109507 113.34557,41.5270035 C112.884706,35.9126431 108.380226,21.5345943 99.4737432,7.48581384 Z" id="path-3"></path>
        <linearGradient x1="69.8584505%" y1="5.20268809%" x2="-23.2267307%" y2="304.891407%" id="linearGradient-5">
            <stop stop-color="#9AD5D9" offset="0%"></stop>
            <stop stop-color="#00C2FF" offset="100%"></stop>
        </linearGradient>
        <linearGradient x1="127.846075%" y1="-16.5921364%" x2="67.5019203%" y2="121.183609%" id="linearGradient-6">
            <stop stop-color="#656969" offset="0%"></stop>
            <stop stop-color="#00B0E8" offset="100%"></stop>
        </linearGradient>
        <linearGradient x1="42.2092557%" y1="89.4585903%" x2="78.911311%" y2="-24.9126907%" id="linearGradient-7">
            <stop stop-color="#738485" offset="0%"></stop>
            <stop stop-color="#00C2FF" offset="100%"></stop>
        </linearGradient>
        <linearGradient x1="81.4576227%" y1="1.74779472%" x2="90.9569698%" y2="88.3129531%" id="linearGradient-8">
            <stop stop-color="#EFEFEF" offset="0%"></stop>
            <stop stop-color="#07A6D9" offset="100%"></stop>
        </linearGradient>
        <linearGradient x1="97.2765804%" y1="0%" x2="45.7935084%" y2="107.600975%" id="linearGradient-9">
            <stop stop-color="#DDFDFF" offset="0%"></stop>
            <stop stop-color="#979797" offset="100%"></stop>
        </linearGradient>
    </defs>
    <g id="页面-1" stroke="none" stroke-width="1" fill="none" fill-rule="evenodd">
        <g id="画板备份-3" transform="translate(-814.000000, -2540.000000)">
            <g id="Group_966备份-7" transform="translate(814.000000, 2540.000000)">
                <ellipse id="椭圆形备份" fill="#FFFFFF" fill-rule="nonzero" cx="179.251867" cy="180.526941" rx="179.251867" ry="179.294985"></ellipse>
                <ellipse id="椭圆形" fill-opacity="0.6" fill="url(#linearGradient-1)" fill-rule="nonzero" cx="179.251867" cy="180.526941" rx="179.251867" ry="179.294985"></ellipse>
                <path d="M245.310478,70.256782 C174.017733,44.1738614 110.549589,50.259893 85.9155052,75.4729965 C71.7149701,132.275697 15.2022275,167.63228 71.7149701,228.492596 C91.1087606,248.129418 176.487805,271.485627 193.703273,268.090468 C209.776381,262.367471 220.674714,237.37892 234.587979,236.751742 C233.959681,239.731396 242.702091,229.21721 243.28223,226.246516 C303.562407,204.003547 326.52607,171.914447 328.878547,136.090281 C312.225859,125.018355 276.924714,110.281919 259.182305,104.297972 C258.721441,98.6836112 254.216961,84.3055625 245.310478,70.256782 Z" id="路径" fill="url(#linearGradient-2)" fill-rule="nonzero"></path>
                <g id="Clipped" transform="translate(145.034843, 64.509706)">
                    <mask id="mask-4" fill="white">
                        <use xlink:href="#path-3"></use>
                    </mask>
                    <g id="路径"></g>
                    <path d="M163.108761,74.3015182 C172.516426,70.9416376 183.828024,71.3151444 189.427825,71.7816078 L191.107765,83.5411896 C192.041252,93.2478845 191.443753,103.657354 187.187904,112.617036 C177.108263,110.377115 164.228721,96.4207317 163.108761,74.3015182 Z" id="路径" fill="url(#linearGradient-5)" fill-rule="nonzero" mask="url(#mask-4)"></path>
                </g>
                <path d="M229.874067,89.3050647 C214.750684,96.0634644 205.939398,108.538701 202.051456,115.327339 C196.86828,123.397773 191.638626,142.707006 197.858885,149.948109 C205.634209,158.999627 220.116974,159.904555 238.259209,149.948109 C256.401444,139.991663 253.656981,118.268915 250.150386,108.916127 C246.64435,99.56334 240.240978,84.7793056 229.874067,89.3050647 Z" id="路径" fill="url(#linearGradient-6)" fill-rule="nonzero"></path>
                <path d="M217.343392,115.726045 C217.264995,111.159408 225.995645,103.113614 233.755849,99.8494898 C239.753235,105.949913 238.174652,116.352103 236.281359,122.608761 C226.575224,123.547287 217.422349,120.340841 217.343392,115.726045 Z" id="路径" fill="#FFFFFF" fill-rule="nonzero"></path>
                <path d="M243.325908,226.077962 C171.01232,252.693815 99.6109383,239.671478 79.1263066,194.096939 C62.4680189,157.034657 84.263564,109.080762 129.509955,72.8786088 C68.6389995,83.4426332 21.880662,134.941762 21.880662,197.377302 C21.880662,275.360129 91.376991,339.794798 177.104903,339.794798 C241.119587,339.794798 294.406172,302.670918 322.267982,253.001804 C290.176083,260.220508 253.146839,249.907354 243.325908,226.077962 Z" id="路径" fill="url(#linearGradient-7)"></path>
                <path d="M93.2170856,127.607703 C101.332877,125.205388 102.044612,114.508089 101.385515,109.459308 L106.062469,93.2042061 L136.430749,84.1297287 C141.130102,85.3482454 150.528248,84.9915381 150.528248,73.8154555 C144.994525,55.6668367 130.633835,43.6549278 109.949291,46.3968143 C89.2647461,49.1386448 74.9040567,67.1567322 74.1133649,92.616787 C73.323233,118.076842 83.0724863,130.610876 93.2170856,127.607703 Z" id="路径" fill="url(#linearGradient-8)" fill-rule="nonzero"></path>
                <path d="M112.320806,54.7528932 C90.3975859,61.4376556 95.9839472,95.4021279 101.517111,111.548594 C103.273768,105.716401 111.029492,93.2954828 127.999129,90.2665505 C144.968206,87.2370582 149.649639,80.8224863 149.869711,77.9934669 C146.487992,67.4613614 134.244027,48.0680189 112.320806,54.7528932 Z" id="路径" fill="url(#linearGradient-9)" fill-rule="nonzero"></path>
            </g>
        </g>
    </g>
</svg>